<svg xmlns="http://www.w3.org/2000/svg" viewBox="0 0 360 96" role="img" aria-labelledby="title desc">
  <title id="title">CostBuddy logo</title>
  <desc id="desc">A cloud cost audit icon with a futuristic CostBuddy wordmark.</desc>
  <defs>
    <linearGradient id="panel" x1="16" y1="10" x2="80" y2="88" gradientUnits="userSpaceOnUse">
      <stop offset="0" stop-color="#17202a"/>
      <stop offset="1" stop-color="#293746"/>
    </linearGradient>
    <linearGradient id="accent" x1="28" y1="24" x2="76" y2="78" gradientUnits="userSpaceOnUse">
      <stop offset="0" stop-color="#4b8ce5"/>
      <stop offset="1" stop-color="#1f7a4c"/>
    </linearGradient>
  </defs>
  <rect x="6" y="6" width="84" height="84" rx="18" fill="url(#panel)"/>
  <path d="M28 36c1.6-8.5 8.4-14.2 17-14.2 6.9 0 12.5 3.5 15.6 9.1 7.4.7 13.2 6.8 13.2 14.4 0 8.2-6.6 14.8-14.8 14.8H30.3c-7.6 0-13.8-6.1-13.8-13.6 0-7 5.1-12.7 11.5-13.5Z" fill="#ffffff"/>
  <path d="M30.8 39.4c1-6.3 6.1-10.8 12.6-10.8 5.2 0 9.4 2.8 11.8 7.1.6 1.1 1.7 1.8 2.9 1.9 4.6.5 8.1 4.2 8.1 8.8 0 5-4 9-9 9H30.6c-4.7 0-8.5-3.8-8.5-8.4 0-4.3 3.1-7.9 7.2-8.4.8-.1 1.4-.6 1.5-1.2Z" fill="#eef5ff"/>
  <path d="M36 43h18" stroke="#17202a" stroke-width="4" stroke-linecap="round"/>
  <path d="M36 52h12" stroke="#17202a" stroke-width="4" stroke-linecap="round"/>
  <circle cx="58" cy="58" r="12" fill="none" stroke="url(#accent)" stroke-width="6"/>
  <path d="M67 67l10 10" stroke="#4b8ce5" stroke-width="6" stroke-linecap="round"/>
  <circle cx="30" cy="68" r="7" fill="#f2c75c"/>
  <path d="M30 64v8M26.5 68h7" stroke="#17202a" stroke-width="2.6" stroke-linecap="round"/>

  <g transform="skewX(-8)">
    <text x="110" y="62"
          fill="#17202a"
          font-family="'Arial Black', 'Helvetica Neue', Arial, sans-serif"
          font-size="36"
          font-weight="900"
          letter-spacing="1.5">CostBuddy</text>
  </g>
  <path d="M112 72h232" stroke="#4b8ce5" stroke-width="3" stroke-linecap="round"/>
  <path d="M150 29h72M258 29h48" stroke="#1f7a4c" stroke-width="3" stroke-linecap="round" opacity="0.85"/>
</svg>
